<?xml version="1.0" encoding="utf-8"?>
<!-- Generator: Adobe Illustrator 19.0.0, SVG Export Plug-In . SVG Version: 6.00 Build 0)  -->
<svg version="1.1" id="Layer_1" xmlns="http://www.w3.org/2000/svg" xmlns:xlink="http://www.w3.org/1999/xlink" x="0px" y="0px"
	 viewBox="-41 164.9 512 512" style="enable-background:new -41 164.9 512 512;" xml:space="preserve">
<style type="text/css">
	.st0{fill:#FBD7D6;}
	.st1{fill:#FBD7D6;stroke:#FBD7D6;stroke-width:6.6913;stroke-miterlimit:10;}
</style>
<path class="st0" d="M380.7,587.9V463.6 M470.7,616.9v-392c0-33.1-26.9-60-60-60h-392c-33.1,0-60,26.9-60,60v392
	c0,33.1,26.9,60,60,60h392C443.8,676.9,470.7,650,470.7,616.9z M410.7,204.9c11,0,20,9,20,20v392c0,11-9,20-20,20h-392
	c-11,0-20-9-20-20v-392c0-11,9-20,20-20L410.7,204.9L410.7,204.9z"/>
<g>
	<g>
		<path class="st1" d="M107.1,349.9c-24.3-12.1-45.5-5.5-59.9,4.7v-35.1l76,0.4l0.1-17.7l-93.8-0.5v101.9l16.1-23
			c0.1-0.1,5.6-7.9,15.1-13.7c12.3-7.5,25.2-7.8,38.5-1.2c11.5,5.7,17.1,14.8,17.2,27.7c0.1,10.6-3.6,19.8-3.7,19.9l-0.3,0.5
			l-0.2,0.7c-0.4,1.5-10.7,36.3-72.2,23.1l-3.7,17.3c11,2.4,20.6,3.3,29.2,3.3c22.8,0,37.3-7.1,46.2-14.1
			c12.4-9.8,16.5-21.4,17.4-24.6c1.1-2.7,4.9-13.2,4.9-25.7C134.2,373.9,124.8,358.7,107.1,349.9z"/>
	</g>
</g>
<g>
	<g>
		<path class="st1" d="M209.4,318.8c-31.2,0-56.6,25.4-56.6,56.6s25.4,56.6,56.6,56.6s56.6-25.4,56.6-56.6S240.6,318.8,209.4,318.8z
			 M209.4,414.3c-21.4,0-38.9-17.5-38.9-38.9c0-21.4,17.5-38.9,38.9-38.9s38.9,17.5,38.9,38.9C248.3,396.8,230.8,414.3,209.4,414.3z
			"/>
	</g>
</g>
<g>
	<g>
		<path class="st1" d="M334.4,318.8c-31.2,0-56.6,25.4-56.6,56.6s25.4,56.6,56.6,56.6s56.6-25.4,56.6-56.6S365.6,318.8,334.4,318.8z
			 M334.4,414.3c-21.4,0-38.9-17.5-38.9-38.9c0-21.4,17.5-38.9,38.9-38.9c21.4,0,38.9,17.5,38.9,38.9
			C373.3,396.8,355.8,414.3,334.4,414.3z"/>
	</g>
</g>
<g>
	<g>
		<path class="st1" d="M273,453.9h-56v97.3h17.7v-38.3H273c9.6,0,14.7-7.6,14.7-14.7v-29.5C287.7,459,280.1,453.9,273,453.9z
			 M270,495.2h-35.4v-23.6H270V495.2z"/>
	</g>
</g>
<g>
	<g>
		<polygon class="st1" points="393.7,476 381.2,463.5 349.9,494.8 318.7,463.5 306.1,476 337.4,507.3 306.1,538.6 318.7,551.1 
			349.9,519.8 381.2,551.1 393.7,538.6 362.4,507.3 		"/>
	</g>
</g>
</svg>
