<?xml version="1.0" encoding="utf-8"?>
<!-- Generator: Adobe Illustrator 19.0.0, SVG Export Plug-In . SVG Version: 6.00 Build 0)  -->
<svg version="1.1" id="Layer_1" xmlns="http://www.w3.org/2000/svg" xmlns:xlink="http://www.w3.org/1999/xlink" x="0px" y="0px"
	 viewBox="-41 164.9 512 512" style="enable-background:new -41 164.9 512 512;" xml:space="preserve">
<style type="text/css">
	.st0{fill:#FBD7D6;}
</style>
<path class="st0" d="M411,164.9H19c-33.1,0-60,26.9-60,60v392c0,33.1,26.9,60,60,60h392c33.1,0,60-26.9,60-60v-392
	C471,191.8,444.1,164.9,411,164.9z M431,616.9c0,11-9,20-20,20H293v-146h64l7.5-62H293v-67c0-17.1,12.9-30,30-30h45v-58
	c-11.8-1.7-34.7-4-45-4c-23.3,0-46.7,9.8-64.1,27c-18,17.7-27.9,40.8-27.9,65.2v66.8h-65v62h65v146H19c-11,0-20-9-20-20v-392
	c0-11,9-20,20-20h392c11,0,20,9,20,20V616.9z"/>
</svg>
