<?xml version="1.0" encoding="utf-8"?>
<!-- Generator: Adobe Illustrator 24.0.1, SVG Export Plug-In . SVG Version: 6.00 Build 0)  -->
<svg version="1.1" id="Layer_1" xmlns="http://www.w3.org/2000/svg" xmlns:xlink="http://www.w3.org/1999/xlink" x="0px" y="0px"
	 viewBox="0 0 512 512" style="enable-background:new 0 0 512 512;" xml:space="preserve">
<style type="text/css">
	.st0{fill:#FFFFFF;}
</style>
<path class="st0" d="M452,0H60C26.9,0,0,26.9,0,60v392c0,33.1,26.9,60,60,60h392c33.1,0,60-26.9,60-60V60C512,26.9,485.1,0,452,0z
	 M472,452c0,11-9,20-20,20H334V326h64l7.5-62H334v-67c0-17.1,12.9-30,30-30h45v-58c-11.8-1.7-34.7-4-45-4c-23.3,0-46.7,9.8-64.1,27
	c-18,17.7-27.9,40.8-27.9,65.2V264h-65v62h65v146H60c-11,0-20-9-20-20V60c0-11,9-20,20-20h392c11,0,20,9,20,20V452z"/>
</svg>
