<?xml version="1.0" encoding="utf-8"?>
<!-- Generator: Adobe Illustrator 19.0.0, SVG Export Plug-In . SVG Version: 6.00 Build 0)  -->
<svg version="1.1" id="Layer_1" xmlns="http://www.w3.org/2000/svg" xmlns:xlink="http://www.w3.org/1999/xlink" x="0px" y="0px"
	 viewBox="-212 336.8 169.1 169.1" style="enable-background:new -212 336.8 169.1 169.1;" xml:space="preserve">
<style type="text/css">
	.st0{fill:#FBD7D6;}
</style>
<g>
	<path class="st0" d="M-89.6,336.8h-75.7c-25.8,0-46.7,20.9-46.7,46.7v75.8c0,25.7,20.9,46.7,46.7,46.7h75.8
		c25.7,0,46.7-20.9,46.7-46.7v-75.8C-42.9,357.7-63.9,336.8-89.6,336.8z M-57.9,459.2c0,17.5-14.2,31.7-31.7,31.7h-75.7
		c-17.5,0-31.7-14.2-31.7-31.7v-75.7c0-17.5,14.2-31.7,31.7-31.7h75.8c17.5,0,31.7,14.2,31.7,31.7L-57.9,459.2L-57.9,459.2z"/>
	<path class="st0" d="M-127.5,377.8c-24,0-43.5,19.5-43.5,43.5s19.5,43.6,43.6,43.6s43.6-19.5,43.6-43.6
		C-83.9,397.3-103.4,377.8-127.5,377.8z M-127.5,449.9c-15.7,0-28.6-12.8-28.6-28.6c0.1-15.7,12.9-28.5,28.6-28.5
		s28.6,12.8,28.6,28.6C-98.9,437.1-111.7,449.9-127.5,449.9z"/>
	<path class="st0" d="M-82.1,365.1c-2.9,0-5.7,1.2-7.8,3.2c-2.1,2-3.2,4.9-3.2,7.8s1.2,5.7,3.2,7.8c2,2,4.9,3.2,7.8,3.2
		c2.9,0,5.7-1.2,7.8-3.2s3.2-4.9,3.2-7.8s-1.2-5.7-3.2-7.8C-76.3,366.2-79.2,365.1-82.1,365.1z"/>
</g>
</svg>
