<?xml version="1.0" encoding="utf-8"?>
<!-- Generator: Adobe Illustrator 19.0.0, SVG Export Plug-In . SVG Version: 6.00 Build 0)  -->
<svg version="1.1" id="Layer_1" xmlns="http://www.w3.org/2000/svg" xmlns:xlink="http://www.w3.org/1999/xlink" x="0px" y="0px"
	 viewBox="-41 164.9 512 512" style="enable-background:new -41 164.9 512 512;" xml:space="preserve">
<style type="text/css">
	.st0{fill:#FBD7D6;}
</style>
<path class="st0" d="M119,587.9H49v-226h70V587.9z M126,289.9c0-22.6-18.4-41-41-41c-22.7,0-41,18.4-41,41s18.3,41,41,41
	C107.6,330.9,126,312.5,126,289.9z M381,463.6c0-60.7-12.8-105.7-83.7-105.7c-34.1,0-56.9,17-66.2,34.7H231v-30.7h-68v226h68V475.7
	c0-29.4,7.5-57.9,43.9-57.9c35.9,0,37.1,33.6,37.1,59.7v110.4h69V463.6z M471,616.9v-392c0-33.1-26.9-60-60-60H19
	c-33.1,0-60,26.9-60,60v392c0,33.1,26.9,60,60,60h392C444.1,676.9,471,650,471,616.9z M411,204.9c11,0,20,9,20,20v392
	c0,11-9,20-20,20H19c-11,0-20-9-20-20v-392c0-11,9-20,20-20H411z"/>
</svg>
