<?xml version="1.0" encoding="utf-8"?>
<!-- Generator: Adobe Illustrator 19.0.0, SVG Export Plug-In . SVG Version: 6.00 Build 0)  -->
<svg version="1.1" id="Layer_1" xmlns="http://www.w3.org/2000/svg" xmlns:xlink="http://www.w3.org/1999/xlink" x="0px" y="0px"
	 viewBox="128 -186.3 512 512" style="enable-background:new 128 -186.3 512 512;" xml:space="preserve">
<style type="text/css">
	.st0{fill:#FBD7D6;}
</style>
<path class="st0" d="M535-186.1H233c-57.9,0.2-104.8,47.1-105,105v301.9c0.2,57.9,47.1,104.8,105,105h302
	c57.9-0.2,104.8-47.1,105-105V-81.2C639.8-139.1,592.9-186,535-186.1z M503.8,8.5c0,2.6,0,5.2,0,8c0,81.5-62.1,175.5-175.5,175.5
	c-33.5,0-66.4-9.6-94.6-27.7c32.6,3.9,65.5-5.2,91.4-25.4c-26.4-0.6-49.6-17.8-57.6-42.9c3.9,0.7,7.8,1.1,11.7,1.1
	c5.5,0,11-0.7,16.3-2.2c-28.8-5.8-49.4-31.1-49.4-60.4v-0.8c8.6,4.7,18.2,7.4,28,7.7c-17.2-11.4-27.5-30.7-27.5-51.3
	c0-10.9,2.9-21.6,8.3-31c31.3,38.5,77.4,61.9,127,64.4c-1.1-4.6-1.6-9.3-1.6-14c0-17,7.1-33.2,19.4-44.9
	c24.8-23.3,63.9-22.1,87.2,2.7c13.8-2.7,27.1-7.8,39.2-15c-4.7,14.3-14.3,26.4-27.1,34.1c12.3-1.4,24.2-4.7,35.5-9.7l0.2,0
	C526.2-11,515.8-0.2,503.8,8.5z"/>
</svg>
